<?xml version="1.0" encoding="UTF-8"?>
<!DOCTYPE svg PUBLIC "-//W3C//DTD SVG 1.1//EN" "http://www.w3.org/Graphics/SVG/1.1/DTD/svg11.dtd">
<!-- Creator: CorelDRAW 2019 (64-Bit) -->
<svg xmlns="http://www.w3.org/2000/svg" xml:space="preserve" width="3602px" height="1122px" version="1.1" style="shape-rendering:geometricPrecision; text-rendering:geometricPrecision; image-rendering:optimizeQuality; fill-rule:evenodd; clip-rule:evenodd"
viewBox="0 0 3602 1121.93"
 xmlns:xlink="http://www.w3.org/1999/xlink"
 xmlns:xodm="http://www.corel.com/coreldraw/odm/2003">
 <defs>
  <style type="text/css">
   <![CDATA[
    .fil1 {fill:white}
    .fil2 {fill:black;fill-rule:nonzero}
    .fil3 {fill:#D12212;fill-rule:nonzero}
    .fil0 {fill:url(#id0)}
   ]]>
  </style>
  <linearGradient id="id0" gradientUnits="userSpaceOnUse" x1="1.68" y1="561.94" x2="1114.07" y2="561.94">
   <stop offset="0" style="stop-opacity:1; stop-color:#9C241D"/>
   <stop offset="1" style="stop-opacity:1; stop-color:#DE2110"/>
  </linearGradient>
 </defs>
 <g id="Layer_x0020_1">
  <metadata id="CorelCorpID_0Corel-Layer"/>
  <g id="_2689232779824">
   <path class="fil0" d="M237.88 12l639.99 0c129.91,0 236.2,106.29 236.2,236.2l0 627.49c0,129.91 -106.29,236.2 -236.2,236.2l-639.99 0c-129.91,0 -236.2,-106.29 -236.2,-236.2l0 -627.49c0,-129.91 106.29,-236.2 236.2,-236.2z"/>
   <g>
    <path class="fil1" d="M483.92 241.14l408.3 1.04c85.36,-1.43 75.42,105.2 7.29,146.86l-240.47 136.56 124.77 8.82 -699.37 331.32 356.44 -263.28 -129.85 -3.52 308.3 -205.74 -281.22 4.18 145.81 -156.24z"/>
    <polygon class="fil1" points="485.83,716.76 854.42,718.46 720.06,863.76 254.48,862.71 "/>
   </g>
   <path class="fil2" d="M1467.41 591.17c-3.74,5.99 -4.12,12.53 -1.12,19.64 2.99,7.11 8.6,10.66 16.83,10.66l228.9 0c8.22,0 14.96,2.62 20.19,7.85 5.24,5.24 7.86,11.97 7.86,20.2l0 56.1c0,8.23 -2.62,14.96 -7.86,20.2 -5.23,5.24 -11.97,7.85 -20.19,7.85l-503.81 0c-8.23,0 -14.96,-2.61 -20.19,-7.85 -5.24,-5.24 -7.86,-11.97 -7.86,-20.2l0 -68.44c0,-10.47 2.62,-19.45 7.86,-26.93l264.8 -407.31c4.49,-6.73 4.86,-13.46 1.12,-20.19 -3.74,-6.74 -9.72,-10.1 -17.95,-10.1l-227.78 0c-8.23,0 -14.96,-2.62 -20.19,-7.86 -5.24,-5.23 -7.86,-11.97 -7.86,-20.2l0 -56.1c0,-8.23 2.62,-14.96 7.86,-20.19 5.23,-5.24 11.96,-7.86 20.19,-7.86l503.81 0c8.22,0 14.96,2.62 20.19,7.86 5.24,5.23 7.86,11.96 7.86,20.19l0 68.45c0,9.72 -3,19.45 -8.98,29.17l-263.68 405.06zm552.05 2.25c0,8.23 2.8,14.96 8.41,20.19 5.61,5.24 12.53,7.86 20.76,7.86l279.39 0c8.23,0 14.96,2.62 20.2,7.85 5.24,5.24 7.85,11.97 7.85,20.2l0 56.1c0,8.23 -2.61,14.96 -7.85,20.2 -5.24,5.24 -11.97,7.85 -20.2,7.85l-503.8 0c-8.23,0 -14.96,-2.61 -20.2,-7.85 -5.23,-5.24 -7.85,-11.97 -7.85,-20.2l0 -617.13c0,-8.23 2.62,-14.96 7.85,-20.19 5.24,-5.24 11.97,-7.86 20.2,-7.86l503.8 0c8.23,0 14.96,2.62 20.2,7.86 5.24,5.23 7.85,11.96 7.85,20.19l0 56.1c0,8.23 -2.61,14.97 -7.85,20.2 -5.24,5.24 -11.97,7.86 -20.2,7.86l-279.39 0c-8.23,0 -15.15,2.62 -20.76,7.85 -5.61,5.24 -8.41,11.97 -8.41,20.2l0 56.1c0,7.48 2.8,13.84 8.41,19.08 5.61,5.23 12.16,7.85 19.64,7.85l280.51 0c8.23,0 14.96,2.8 20.2,8.42 5.24,5.61 7.85,12.15 7.85,19.63l0 57.23c0,7.48 -2.61,14.21 -7.85,20.19 -5.24,5.99 -11.97,8.98 -20.2,8.98l-280.51 0c-7.48,0 -14.03,2.62 -19.64,7.85 -5.61,5.24 -8.41,11.6 -8.41,19.08l0 168.31zm924.57 -532.98c8.23,0 14.96,2.62 20.2,7.86 5.24,5.23 7.85,11.96 7.85,20.19l0 617.13c0,8.23 -2.61,14.96 -7.85,20.2 -5.24,5.24 -11.97,7.85 -20.2,7.85l-503.8 0c-8.23,0 -14.96,-2.61 -20.2,-7.85 -5.24,-5.24 -7.85,-11.97 -7.85,-20.2l0 -617.13c0,-8.23 2.61,-14.96 7.85,-20.19 5.24,-5.24 11.97,-7.86 20.2,-7.86l168.31 0c7.48,0 13.84,2.62 19.07,7.86 5.24,5.23 7.86,11.96 7.86,20.19l0 504.93c0,8.23 2.8,14.96 8.41,20.19 5.61,5.24 12.53,7.86 20.76,7.86l168.31 0c7.48,0 14.02,-2.62 19.63,-7.86 5.61,-5.23 8.42,-11.96 8.42,-20.19l0 -504.93c0,-8.23 2.62,-14.96 7.85,-20.19 5.24,-5.24 11.6,-7.86 19.08,-7.86l56.1 0zm616.01 223.29c8.23,0 14.96,2.8 20.2,8.42 5.23,5.61 7.85,12.15 7.85,19.63l0 393.84c0,8.23 -2.62,14.96 -7.85,20.2 -5.24,5.24 -11.97,7.85 -20.2,7.85l-503.8 0c-8.23,0 -14.96,-2.61 -20.2,-7.85 -5.24,-5.24 -7.85,-11.97 -7.85,-20.2l0 -56.1c0,-8.23 2.61,-14.96 7.85,-20.2 5.24,-5.23 11.97,-7.85 20.2,-7.85l394.96 0c6.73,-1.5 12.53,-4.68 17.39,-9.54 4.86,-4.86 7.3,-11.03 7.3,-18.51l0 -168.31c0,-7.48 -2.62,-13.84 -7.86,-19.08 -5.23,-5.23 -11.97,-7.85 -20.2,-7.85l-391.59 0c-8.23,0 -14.96,-2.99 -20.2,-8.98 -5.24,-5.98 -7.85,-12.71 -7.85,-20.19l0 -280.52c0,-8.23 2.61,-14.96 7.85,-20.19 5.24,-5.24 11.97,-7.86 20.2,-7.86l503.8 0c8.23,0 14.96,2.62 20.2,7.86 5.23,5.23 7.85,11.96 7.85,20.19l0 54.98c0,8.23 -2.62,15.15 -7.85,20.76 -5.24,5.61 -11.97,8.42 -20.2,8.42l-280.51 0c-7.49,0 -14.03,2.62 -19.64,7.85 -5.61,5.24 -8.42,11.97 -8.42,20.2l0 56.1c0,7.48 2.81,13.84 8.42,19.08 5.61,5.23 12.15,7.85 19.64,7.85l280.51 0z"/>
   <path class="fil3" d="M1356.36 874.49c2.89,0 5.26,0.99 7.1,2.96 1.84,1.97 2.76,4.27 2.76,6.9l0 138.32c0,2.89 -0.92,5.25 -2.76,7.09 -1.84,1.84 -4.21,2.76 -7.1,2.76l-176.94 0c-2.89,0 -5.25,-0.92 -7.09,-2.76 -1.84,-1.84 -2.76,-4.2 -2.76,-7.09l0 -19.71c0,-2.89 0.92,-5.25 2.76,-7.09 1.84,-1.84 4.2,-2.76 7.09,-2.76l138.72 0c2.36,-0.52 4.4,-1.64 6.11,-3.35 1.71,-1.71 2.56,-3.87 2.56,-6.5l0 -59.11c0,-2.63 -0.92,-4.86 -2.76,-6.7 -1.84,-1.84 -4.2,-2.76 -7.09,-2.76l-137.54 0c-2.89,0 -5.25,-1.05 -7.09,-3.15 -1.84,-2.1 -2.76,-4.47 -2.76,-7.1l0 -98.52c0,-2.89 0.92,-5.25 2.76,-7.09 1.84,-1.84 4.2,-2.76 7.09,-2.76l176.94 0c2.89,0 5.26,0.92 7.1,2.76 1.84,1.84 2.76,4.2 2.76,7.09l0 19.31c0,2.89 -0.92,5.32 -2.76,7.29 -1.84,1.97 -4.21,2.96 -7.1,2.96l-98.52 0c-2.62,0 -4.92,0.92 -6.89,2.76 -1.97,1.84 -2.96,4.2 -2.96,7.09l0 19.71c0,2.62 0.99,4.86 2.96,6.69 1.97,1.84 4.27,2.76 6.89,2.76l98.52 0zm216.35 -78.42c2.89,0 5.26,0.92 7.1,2.76 1.84,1.84 2.76,4.2 2.76,7.09l0 216.75c0,2.89 -0.92,5.25 -2.76,7.09 -1.84,1.84 -4.21,2.76 -7.1,2.76l-176.94 0c-2.89,0 -5.25,-0.92 -7.09,-2.76 -1.84,-1.84 -2.76,-4.2 -2.76,-7.09l0 -216.75c0,-2.89 0.92,-5.25 2.76,-7.09 1.84,-1.84 4.2,-2.76 7.09,-2.76l176.94 0zm-29.55 49.26c0,-2.89 -0.92,-5.25 -2.76,-7.09 -1.84,-1.84 -4.2,-2.76 -7.09,-2.76l-59.12 0c-2.62,0 -4.92,0.92 -6.89,2.76 -1.97,1.84 -2.96,4.2 -2.96,7.09l0 137.93c0,2.89 0.99,5.25 2.96,7.09 1.97,1.84 4.27,2.76 6.89,2.76l59.12 0c2.89,0 5.25,-0.92 7.09,-2.76 1.84,-1.84 2.76,-4.2 2.76,-7.09l0 -137.93zm245.9 147.78c2.89,0 5.26,0.92 7.1,2.76 1.84,1.84 2.76,4.2 2.76,7.09l0 19.71c0,2.89 -0.92,5.25 -2.76,7.09 -1.84,1.84 -4.21,2.76 -7.1,2.76l-176.94 0c-2.89,0 -5.25,-0.92 -7.09,-2.76 -1.84,-1.84 -2.76,-4.2 -2.76,-7.09l0 -216.75c0,-2.89 0.92,-5.25 2.76,-7.09 1.84,-1.84 4.2,-2.76 7.09,-2.76l59.12 0c2.62,0 4.86,0.92 6.69,2.76 1.84,1.84 2.76,4.2 2.76,7.09l0 177.34c0,2.89 0.99,5.25 2.96,7.09 1.97,1.84 4.4,2.76 7.29,2.76l98.12 0zm216.36 -197.04c2.89,0 5.25,0.92 7.09,2.76 1.84,1.84 2.76,4.2 2.76,7.09l0 216.75c0,2.89 -0.92,5.25 -2.76,7.09 -1.84,1.84 -4.2,2.76 -7.09,2.76l-176.95 0c-2.89,0 -5.25,-0.92 -7.09,-2.76 -1.84,-1.84 -2.76,-4.2 -2.76,-7.09l0 -216.75c0,-2.89 0.92,-5.25 2.76,-7.09 1.84,-1.84 4.2,-2.76 7.09,-2.76l59.12 0c2.62,0 4.86,0.92 6.69,2.76 1.84,1.84 2.76,4.2 2.76,7.09l0 177.34c0,2.89 0.99,5.25 2.96,7.09 1.97,1.84 4.4,2.76 7.29,2.76l59.11 0c2.63,0 4.93,-0.92 6.9,-2.76 1.97,-1.84 2.95,-4.2 2.95,-7.09l0 -177.34c0,-2.89 0.92,-5.25 2.76,-7.09 1.84,-1.84 4.07,-2.76 6.7,-2.76l19.71 0zm216.35 0c2.89,0 5.32,0.92 7.29,2.76 1.97,1.84 2.95,4.2 2.95,7.09l0 19.71c0,2.89 -0.98,5.25 -2.95,7.09 -1.97,1.84 -4.4,2.76 -7.29,2.76l-19.71 0c-2.63,0 -4.86,0.92 -6.7,2.76 -1.84,1.84 -2.76,4.2 -2.76,7.09l0 177.34c0,2.89 -0.98,5.25 -2.95,7.09 -1.97,1.84 -4.27,2.76 -6.9,2.76l-59.11 0c-2.89,0 -5.25,-0.92 -7.09,-2.76 -1.84,-1.84 -2.76,-4.2 -2.76,-7.09l0 -177.34c0,-2.89 -0.92,-5.25 -2.76,-7.09 -1.84,-1.84 -4.2,-2.76 -7.09,-2.76l-58.72 0c-2.89,0 -5.32,-0.92 -7.29,-2.76 -1.97,-1.84 -2.96,-4.2 -2.96,-7.09l0 -19.71c0,-2.89 0.99,-5.25 2.96,-7.09 1.97,-1.84 4.4,-2.76 7.29,-2.76l176.55 0zm108.37 226.6c0,2.89 -0.92,5.25 -2.76,7.09 -1.84,1.84 -4.07,2.76 -6.7,2.76l-59.11 0c-2.89,0 -5.26,-0.92 -7.1,-2.76 -1.83,-1.84 -2.75,-4.2 -2.75,-7.09l0 -216.75c0,-2.89 0.92,-5.25 2.75,-7.09 1.84,-1.84 4.21,-2.76 7.1,-2.76l59.11 0c2.63,0 4.86,0.92 6.7,2.76 1.84,1.84 2.76,4.2 2.76,7.09l0 216.75zm206.49 -226.6c2.89,0 5.26,0.92 7.1,2.76 1.84,1.84 2.76,4.2 2.76,7.09l0 216.75c0,2.89 -0.92,5.25 -2.76,7.09 -1.84,1.84 -4.21,2.76 -7.1,2.76l-176.94 0c-2.89,0 -5.25,-0.92 -7.09,-2.76 -1.84,-1.84 -2.76,-4.2 -2.76,-7.09l0 -216.75c0,-2.89 0.92,-5.25 2.76,-7.09 1.84,-1.84 4.2,-2.76 7.09,-2.76l176.94 0zm-29.55 49.26c0,-2.89 -0.92,-5.25 -2.76,-7.09 -1.84,-1.84 -4.2,-2.76 -7.09,-2.76l-59.12 0c-2.62,0 -4.92,0.92 -6.89,2.76 -1.97,1.84 -2.96,4.2 -2.96,7.09l0 137.93c0,2.89 0.99,5.25 2.96,7.09 1.97,1.84 4.27,2.76 6.89,2.76l59.12 0c2.89,0 5.25,-0.92 7.09,-2.76 1.84,-1.84 2.76,-4.2 2.76,-7.09l0 -137.93zm245.9 -49.26c2.89,0 5.26,0.92 7.1,2.76 1.84,1.84 2.76,4.2 2.76,7.09l0 216.75c0,2.89 -0.92,5.25 -2.76,7.09 -1.84,1.84 -4.21,2.76 -7.1,2.76l-19.7 0c-2.63,0 -4.92,-0.92 -6.9,-2.76 -1.97,-1.84 -2.95,-4.2 -2.95,-7.09l0 -121.38c0,-3.68 -1.45,-6.44 -4.34,-8.28l-59.11 -39.8c-3.41,-1.57 -6.83,-1.51 -10.24,0.2 -3.42,1.71 -5.13,4.53 -5.13,8.47l0 160.79c0,2.89 -0.92,5.25 -2.76,7.09 -1.83,1.84 -4.07,2.76 -6.69,2.76l-59.12 0c-2.89,0 -5.25,-0.92 -7.09,-2.76 -1.84,-1.84 -2.76,-4.2 -2.76,-7.09l0 -216.75c0,-2.89 0.92,-5.25 2.76,-7.09 1.84,-1.84 4.2,-2.76 7.09,-2.76l65.03 0c2.36,0 4.46,0.66 6.3,1.97l63.05 41.78c1.32,1.05 2.89,1.57 4.73,1.57 2.11,0 4.01,-0.79 5.72,-2.36 1.71,-1.58 2.56,-3.55 2.56,-5.91l0 -27.2c0,-2.89 0.98,-5.25 2.95,-7.09 1.98,-1.84 4.27,-2.76 6.9,-2.76l19.7 0zm216.36 78.42c2.89,0 5.25,0.99 7.09,2.96 1.84,1.97 2.76,4.27 2.76,6.9l0 138.32c0,2.89 -0.92,5.25 -2.76,7.09 -1.84,1.84 -4.2,2.76 -7.09,2.76l-176.95 0c-2.89,0 -5.25,-0.92 -7.09,-2.76 -1.84,-1.84 -2.76,-4.2 -2.76,-7.09l0 -19.71c0,-2.89 0.92,-5.25 2.76,-7.09 1.84,-1.84 4.2,-2.76 7.09,-2.76l138.72 0c2.36,-0.52 4.4,-1.64 6.11,-3.35 1.71,-1.71 2.56,-3.87 2.56,-6.5l0 -59.11c0,-2.63 -0.92,-4.86 -2.76,-6.7 -1.84,-1.84 -4.2,-2.76 -7.09,-2.76l-137.54 0c-2.89,0 -5.25,-1.05 -7.09,-3.15 -1.84,-2.1 -2.76,-4.47 -2.76,-7.1l0 -98.52c0,-2.89 0.92,-5.25 2.76,-7.09 1.84,-1.84 4.2,-2.76 7.09,-2.76l176.95 0c2.89,0 5.25,0.92 7.09,2.76 1.84,1.84 2.76,4.2 2.76,7.09l0 19.31c0,2.89 -0.92,5.32 -2.76,7.29 -1.84,1.97 -4.2,2.96 -7.09,2.96l-98.52 0c-2.63,0 -4.93,0.92 -6.9,2.76 -1.97,1.84 -2.96,4.2 -2.96,7.09l0 19.71c0,2.62 0.99,4.86 2.96,6.69 1.97,1.84 4.27,2.76 6.9,2.76l98.52 0zm196.64 148.18c0,2.89 -0.92,5.25 -2.76,7.09 -1.84,1.84 -4.07,2.76 -6.7,2.76l-59.11 0c-2.89,0 -5.25,-0.92 -7.09,-2.76 -1.84,-1.84 -2.76,-4.2 -2.76,-7.09l0 -216.75c0,-2.89 0.92,-5.25 2.76,-7.09 1.84,-1.84 4.2,-2.76 7.09,-2.76l59.11 0c2.63,0 4.86,0.92 6.7,2.76 1.84,1.84 2.76,4.2 2.76,7.09l0 216.75zm206.5 -226.6c2.89,0 5.25,0.92 7.09,2.76 1.84,1.84 2.76,4.2 2.76,7.09l0 216.75c0,2.89 -0.92,5.25 -2.76,7.09 -1.84,1.84 -4.2,2.76 -7.09,2.76l-19.7 0c-2.63,0 -4.93,-0.92 -6.9,-2.76 -1.97,-1.84 -2.96,-4.2 -2.96,-7.09l0 -121.38c0,-3.68 -1.44,-6.44 -4.33,-8.28l-59.11 -39.8c-3.42,-1.57 -6.83,-1.51 -10.25,0.2 -3.41,1.71 -5.12,4.53 -5.12,8.47l0 160.79c0,2.89 -0.92,5.25 -2.76,7.09 -1.84,1.84 -4.07,2.76 -6.7,2.76l-59.11 0c-2.89,0 -5.26,-0.92 -7.1,-2.76 -1.83,-1.84 -2.75,-4.2 -2.75,-7.09l0 -216.75c0,-2.89 0.92,-5.25 2.75,-7.09 1.84,-1.84 4.21,-2.76 7.1,-2.76l65.02 0c2.37,0 4.47,0.66 6.31,1.97l63.05 41.78c1.31,1.05 2.89,1.57 4.73,1.57 2.1,0 4,-0.79 5.71,-2.36 1.71,-1.58 2.56,-3.55 2.56,-5.91l0 -27.2c0,-2.89 0.99,-5.25 2.96,-7.09 1.97,-1.84 4.27,-2.76 6.9,-2.76l19.7 0zm216.35 0c2.89,0 5.25,0.92 7.09,2.76 1.84,1.84 2.76,4.2 2.76,7.09l0 19.71c0,2.89 -0.92,5.25 -2.76,7.09 -1.84,1.84 -4.2,2.76 -7.09,2.76l-98.13 0c-2.89,0 -5.32,0.92 -7.29,2.76 -1.97,1.84 -2.95,4.2 -2.95,7.09l0 137.93c0,2.89 0.98,5.25 2.95,7.09 1.97,1.84 4.4,2.76 7.29,2.76l98.13 0c2.89,0 5.25,0.92 7.09,2.76 1.84,1.84 2.76,4.2 2.76,7.09l0 19.71c0,2.89 -0.92,5.25 -2.76,7.09 -1.84,1.84 -4.2,2.76 -7.09,2.76l-176.94 0c-2.89,0 -5.26,-0.92 -7.1,-2.76 -1.83,-1.84 -2.75,-4.2 -2.75,-7.09l0 -216.75c0,-2.89 0.92,-5.25 2.75,-7.09 1.84,-1.84 4.21,-2.76 7.1,-2.76l176.94 0z"/>
  </g>
 </g>
</svg>
